<svg id="Layer_1" data-name="Layer 1" xmlns="http://www.w3.org/2000/svg" viewBox="0 0 1220.34 599.21"><defs><style>.cls-1{fill:#7f8674;stroke:#000;stroke-miterlimit:10;}</style></defs><title>clouds</title><path class="cls-1" d="M1106.89,214.27a380.27,380.27,0,0,0-41.72,2.28c-49.51-50-130.7-82.58-222.46-82.58-41.73,0-81.28,6.74-116.65,18.8-1.17-.4-2.35-0.77-3.53-1.16-40.13-19-88.17-30.11-139.81-30.11-76,0-144.23,24-190.88,62-131,14.49-231.25,96-231.25,194.32,0,62.27,40.2,117.78,102.93,153.8,6.23,104.61,126,188.05,272.79,188.05,89.57,0,169.07-31.06,218.86-79,47.72,29.4,109.68,47.15,177.4,47.15,92.3,0,173.9-33,223.32-83.46,127.41-16.63,224-96.92,224-193.46C1379.94,302.3,1257.69,214.27,1106.89,214.27Z" transform="translate(-160.1 -120.99)"/></svg>