<svg id="Layer_1" data-name="Layer 1" xmlns="http://www.w3.org/2000/svg" viewBox="0 0 1219.34 967.64"><defs><style>.cls-1{fill:#7f8674;}.cls-2{fill:#7adbff;}</style></defs><title>rain</title><path class="cls-1" d="M1337.89,149.27a380.27,380.27,0,0,0-41.72,2.28c-49.51-50-130.7-82.58-222.46-82.58-41.73,0-81.28,6.74-116.65,18.8-1.17-.4-2.35-0.77-3.53-1.16-40.13-19-88.17-30.11-139.81-30.11-76,0-144.23,24-190.88,62-131,14.49-231.25,96-231.25,194.32,0,62.27,40.2,117.78,102.93,153.8,1.74,29.27,12.38,56.88,30,81.47,3-12.92,6.67-20.61,10.7-20.61,6.52,0,12.21,20.14,15.23,50,49.9,46.9,128.47,77.15,216.85,77.15,47.39,0,92-8.7,130.81-24,3.16-17.46,7.48-28.22,12.25-28.22,3.79,0,7.29,6.79,10.16,18.34,25.22-12.33,47.43-27.61,65.65-45.17,47.72,29.4,109.68,47.15,177.4,47.15a367,367,0,0,0,100.27-13.7c2-4.27,4.09-6.62,6.31-6.62,1.57,0,3.08,1.17,4.53,3.34,45.23-14.53,84-37.64,112.21-66.48,127.41-16.63,224-96.92,224-193.46C1610.94,237.3,1488.69,149.27,1337.89,149.27Z" transform="translate(-391.6 -56.49)"/><path class="cls-2" d="M1270.16,602.49c-2.22,0-4.35,2.35-6.31,6.62-6.57,14.35-11.23,50.44-11.23,92.7,0,54.86,7.85,99.32,17.54,99.32s17.54-44.47,17.54-99.32c0-46-5.52-84.68-13-96C1273.24,603.66,1271.73,602.49,1270.16,602.49Z" transform="translate(-391.6 -56.49)"/><ellipse class="cls-2" cx="290.17" cy="733.67" rx="17.54" ry="99.32"/><path class="cls-2" d="M535.23,527.51c-4,0-7.74,7.69-10.7,20.61-4.16,18.16-6.84,46.66-6.84,78.71,0,54.86,7.85,99.32,17.54,99.32s17.54-44.47,17.54-99.32c0-17.94-.84-34.76-2.31-49.29C547.44,547.66,541.75,527.51,535.23,527.51Z" transform="translate(-391.6 -56.49)"/><ellipse class="rain" cx="404.06" cy="868.32" rx="17.54" ry="99.32"/><path class="cls-2" d="M910.37,602.49c-4.77,0-9.09,10.76-12.25,28.22-3.27,18-5.3,43.23-5.3,71.11,0,54.86,7.85,99.32,17.54,99.32s17.54-44.47,17.54-99.32c0-33.42-2.91-63-7.38-81C917.66,609.28,914.16,602.49,910.37,602.49Z" transform="translate(-391.6 -56.49)"/><ellipse class="cls-2" cx="926.82" cy="868.32" rx="17.54" ry="99.32"/><ellipse class="cls-2" cx="1096.11" cy="570.35" rx="17.54" ry="99.32"/></svg>